<svg id="Capa_1" enable-background="new 0 0 512 512" height="512" viewBox="0 0 512 512" width="512" xmlns="http://www.w3.org/2000/svg"><g><path d="m491.187 469.333h-470.374c-11.495 0-20.813-9.318-20.813-20.813v-291.382c0-11.495 9.318-20.813 20.813-20.813h470.374c11.495 0 20.813 9.318 20.813 20.813v291.382c0 11.495-9.319 20.813-20.813 20.813z" fill="#ffe07d"/><path d="m491.187 136.325h-33.301c11.495 0 20.813 9.318 20.813 20.813v291.382c0 11.495-9.318 20.813-20.813 20.813h33.301c11.495 0 20.813-9.318 20.813-20.813v-291.382c0-11.495-9.319-20.813-20.813-20.813z" fill="#ffd064"/><path d="m203.967 136.325c0 29.025 23.889 52.576 53.038 52.023 28.487-.54 51.027-24.404 51.027-52.896v-82.484c0-5.69-4.612-10.302-10.302-10.302h-83.461c-5.69 0-10.302 4.612-10.302 10.302z" fill="#d8e2f1"/><path d="m287.219 42.667v93.658c0 25.128-17.905 46.151-41.626 50.985 3.591.732 7.314 1.094 11.13 1.042 28.603-.392 51.309-24.326 51.309-52.931v-82.453c0-5.69-4.612-10.302-10.302-10.302h-10.511z" fill="#b9cbea"/><circle cx="256" cy="136.325" fill="#5766cb" r="18.732"/><g><path d="m478.699 443.759h-41.626c-4.267 0-7.726-3.459-7.726-7.726s3.459-7.726 7.726-7.726h41.626c4.267 0 7.726 3.459 7.726 7.726 0 4.266-3.459 7.726-7.726 7.726z" fill="#dd5790"/></g><g><path d="m280.976 318.881h-41.626c-4.267 0-7.726-3.459-7.726-7.726s3.459-7.726 7.726-7.726h41.626c4.267 0 7.726 3.459 7.726 7.726 0 4.266-3.459 7.726-7.726 7.726z" fill="#e7a52e"/></g><g><path d="m478.699 318.881h-156.098c-4.267 0-7.726-3.459-7.726-7.726s3.459-7.726 7.726-7.726h156.097c4.267 0 7.726 3.459 7.726 7.726.001 4.266-3.458 7.726-7.725 7.726z" fill="#e7a52e"/></g><g><path d="m280.976 352.181h-41.626c-4.267 0-7.726-3.459-7.726-7.726s3.459-7.726 7.726-7.726h41.626c4.267 0 7.726 3.459 7.726 7.726s-3.459 7.726-7.726 7.726z" fill="#e7a52e"/></g><g><path d="m478.699 352.181h-156.098c-4.267 0-7.726-3.459-7.726-7.726s3.459-7.726 7.726-7.726h156.097c4.267 0 7.726 3.459 7.726 7.726.001 4.267-3.458 7.726-7.725 7.726z" fill="#e7a52e"/></g><g><path d="m280.976 385.482h-41.626c-4.267 0-7.726-3.459-7.726-7.726s3.459-7.726 7.726-7.726h41.626c4.267 0 7.726 3.459 7.726 7.726s-3.459 7.726-7.726 7.726z" fill="#e7a52e"/></g><g><path d="m478.699 385.482h-156.098c-4.267 0-7.726-3.459-7.726-7.726s3.459-7.726 7.726-7.726h156.097c4.267 0 7.726 3.459 7.726 7.726.001 4.267-3.458 7.726-7.725 7.726z" fill="#e7a52e"/></g><path d="m478.699 220.176h-239.35c-4.267 0-7.726 3.459-7.726 7.726v41.626c0 4.267 3.459 7.726 7.726 7.726h239.349c4.267 0 7.726-3.459 7.726-7.726v-41.626c.001-4.267-3.458-7.726-7.725-7.726z" fill="#dd5790"/><g><path d="m203.97 236.11v193.65c0 1.4-.21 2.76-.6 4.04h-169.47c-.39-1.28-.6-2.64-.6-4.04v-193.65c0-7.73 6.27-14 14-14h142.67c7.73 0 14 6.27 14 14z" fill="#dd5790"/><g><circle cx="118.634" cy="312.049" fill="#f1d0a5" r="46.377"/><path d="m139.288 270.526c3.1 6.221 4.854 13.231 4.854 20.654 0 25.613-20.764 46.377-46.377 46.377-7.423 0-14.433-1.753-20.654-4.854 7.598 15.245 23.333 25.723 41.523 25.723 25.613 0 46.377-20.764 46.377-46.377 0-18.191-10.478-33.926-25.723-41.523z" fill="#f1b986"/><path d="m144.38 362.39c1.35 5.72 2.08 11.68 2.08 17.83 0 26.66-13.47 50.08-33.81 63.54h-65.35c-6.33 0-11.67-4.2-13.4-9.96 4.93-42.43 40.98-75.37 84.73-75.37 8.98 0 17.63 1.38 25.75 3.96z" fill="#5766cb"/><path d="m203.378 433.765c-3.935-33.718-27.518-61.434-59.003-71.384 1.351 5.723 2.085 11.693 2.085 17.842 0 26.659-13.473 50.077-33.808 63.536h77.315c6.339 0 11.687-4.216 13.411-9.994z" fill="#3342aa"/></g></g></g></svg>