<svg id="Layer_1" height="512" viewBox="0 0 512 512" width="512" xmlns="http://www.w3.org/2000/svg" data-name="Layer 1"><path d="m360.12 66.69a50.166 50.166 0 1 1 -48.29 36.35 50.236 50.236 0 0 1 48.29-36.35z" fill="#edb740"/><path d="m339.84 146.95a50.228 50.228 0 0 1 30.3-79.259 50.234 50.234 0 1 0 .03 98.463 50.237 50.237 0 0 1 -30.33-19.204z" fill="#d8a43d"/><path d="m423.49 219.23v93.55h-63.37v-93.55h16.17 31.04z" fill="#ff7178"/><path d="m376.29 203.42h31.04v15.81h-31.04z" fill="#e75163"/><path d="m376.29 219.23h-16.17v93.55h19v-93.55z" fill="#e75163"/><path d="m376.29 203.42h19v15.81h-19z" fill="#ff7178"/><path d="m360.12 219.23v93.55h-84.82v-209.74h36.53a50.243 50.243 0 0 0 48.29 64.12z" fill="#5fa8ed"/><path d="m275.3 103.04h19v209.74h-19z" fill="#4689d3"/><path d="m169.42 73.94h88.52 17.36v29.1 209.74h-123.24v-163.53-75.31z" fill="#ffc25f"/><path d="m171.06 73.94h-1.64-17.36v75.31 163.53h19v-163.53z" fill="#e8a467"/><path d="m169.42 40.12h88.52v33.82h-88.52z" fill="#e8a467"/><path d="m169.42 40.12h19v33.82h-19z" fill="#ffc25f"/><path d="m127.47 138.08v22.42l-35.23 17.33-.19-.39v-39.36z" fill="#9fd37d"/><path d="m111.05 138.08h-19v39.36l.19.39 18.81-9.253z" fill="#b7ff8d"/><path d="m127.47 160.5 22.86-11.25h1.73v163.53h-81.72v-124.17l21.9-10.78z" fill="#b7ff8d"/><path d="m111.24 177.83 35.23-17.33 5.59-2.751v-8.499h-1.73l-22.86 11.25-35.23 17.33-21.9 10.78v124.17h19v-124.17z" fill="#9fd37d"/><path d="m343.78 383.47 8.08-4.26 48.6-26.22 5.84-3.15a26.556 26.556 0 0 1 35.36 9.67l-114.57 78.66a80.229 80.229 0 0 1 -49.9 7.05l-66.22-12.2a24.656 24.656 0 0 0 -18.02 2.39l-35.87 22.68-25.06-82.18.22-.07a43.047 43.047 0 0 0 20.79-10.18l10.97-9.76a73.311 73.311 0 0 1 76.01-7.43l4.55 2.2a52.339 52.339 0 0 0 22.8 5.23h44.07a32.78 32.78 0 0 1 32.35 27.57z" fill="#f9b691"/><path d="m426.59 347.8-102.5 70.37a80.229 80.229 0 0 1 -49.9 7.05l-66.22-12.2a24.656 24.656 0 0 0 -18.02 2.39l-38.723 23.49 5.853 19.193 35.87-22.68a24.656 24.656 0 0 1 18.02-2.39l66.22 12.2a80.229 80.229 0 0 0 49.9-7.05l114.57-78.66a26.464 26.464 0 0 0 -15.07-11.713z" fill="#e8aa8b"/><path d="m400.43 352.93.03.06-48.6 26.22-8.08 4.26a32.66 32.66 0 0 0 -10.71-19.4l31.25-16.84 7.95-4.28c9.82-4.98 22.71.4 28.16 9.98z" fill="#eaac8c"/><path d="m363.93 346.51.39.72-31.25 16.84a32.585 32.585 0 0 0 -21.64-8.17h-9.77l25.98-14.13a30.021 30.021 0 0 1 36.29 4.74z" fill="#f9b691"/><path d="m157.08 458.09 11.56 37.91h-79.59l-17.68-145.03h53.05l7.6 24.94z" fill="#fb6771"/><path d="m124.68 460.01a10.615 10.615 0 1 1 -10.61 10.61 10.61 10.61 0 0 1 10.61-10.61z" fill="#eadf53"/><g fill="#284268"><path d="m446.8 356.415a32.5 32.5 0 0 0 -43.344-11.853l-1.2.645c-8.274-9.44-22.1-12.982-32.7-7.61-.045.022-.09.046-.134.069l-3.982 2.146a36.069 36.069 0 0 0 -40.732-3.28l-24.577 13.368h-32.767a46.647 46.647 0 0 1 -20.194-4.626l-4.544-2.2a79.018 79.018 0 0 0 -82.234 8.031c-.131.1-.259.2-.381.312l-10.972 9.768a37.022 37.022 0 0 1 -12.948 7.48l-5.927-19.44a6 6 0 0 0 -5.739-4.25h-53.059a6 6 0 0 0 -5.956 6.725l17.69 145.027a6 6 0 0 0 5.953 5.273h79.588a6 6 0 0 0 5.739-7.75l-10.224-33.535 31.852-20.137a18.571 18.571 0 0 1 13.5-1.735q.186.046.375.081l66.242 12.2a86.805 86.805 0 0 0 53.626-7.572 5.925 5.925 0 0 0 .734-.431l114.57-78.664a6 6 0 0 0 1.745-8.042zm-71.76-8.145c5.171-2.581 11.592-.782 16.12 2.923l-42.1 22.713-1.483.782a38.742 38.742 0 0 0 -4.924-8.966zm-44.531-1.232c.048-.026.095-.053.142-.08a24.055 24.055 0 0 1 22.8-.688l-19.792 10.665a38.6 38.6 0 0 0 -11.31-5.461zm-236.144 142.962-16.222-133.027h41.838l40.558 133.027zm229.686-57.019a74.713 74.713 0 0 1 -45.771 6.337l-66.046-12.163a30.51 30.51 0 0 0 -22.213 3.022c-.095.052-.188.108-.279.166l-29.215 18.47-20.937-68.674a49.007 49.007 0 0 0 17.428-9.993l10.784-9.6a67.058 67.058 0 0 1 69.6-6.671l4.544 2.2a58.7 58.7 0 0 0 25.419 5.824h44.065a26.808 26.808 0 0 1 26.009 20.452l-30.562-1.384a192.035 192.035 0 0 0 -34.951 1.614 6 6 0 0 0 1.644 11.887 180.1 180.1 0 0 1 32.764-1.513l37.586 1.7c.091 0 .182.006.271.006a6 6 0 0 0 6-6c0-.59-.018-1.176-.044-1.76l4.559-2.4 54.446-29.372a20.531 20.531 0 0 1 23.814 3.078z"/><path d="m108.065 470.625a16.612 16.612 0 1 0 16.612-16.612 16.631 16.631 0 0 0 -16.612 16.612zm16.612-4.612a4.612 4.612 0 1 1 -4.612 4.612 4.617 4.617 0 0 1 4.612-4.612z"/><path d="m181.1 152.635h65.162a6 6 0 1 0 0-12h-65.162a6 6 0 0 0 0 12z"/><path d="m295.942 210.056h42.014a6 6 0 0 0 0-12h-42.014a6 6 0 0 0 0 12z"/><path d="m181.1 186.863h65.162a6 6 0 0 0 0-12h-65.162a6 6 0 0 0 0 12z"/><path d="m181.1 221.093h65.162a6 6 0 0 0 0-12h-65.162a6 6 0 0 0 0 12z"/><path d="m181.1 255.321h65.162a6 6 0 0 0 0-12h-65.162a6 6 0 0 0 0 12z"/><path d="m181.1 289.55h65.162a6 6 0 0 0 0-12h-65.162a6 6 0 0 0 0 12z"/><path d="m295.942 243.594h42.014a6 6 0 0 0 0-12h-42.014a6 6 0 0 0 0 12z"/><path d="m337.956 265.133h-42.014a6 6 0 0 0 0 12h42.014a6 6 0 0 0 0-12z"/><path d="m295.942 176.517h22.924a6 6 0 0 0 0-12h-22.924a6 6 0 0 0 0 12z"/><path d="m295.942 142.979h3.834a6 6 0 0 0 0-12h-3.834a6 6 0 0 0 0 12z"/><path d="m181.1 118.406h65.162a6 6 0 0 0 0-12h-65.162a6 6 0 0 0 0 12z"/><path d="m400.749 285.062h-20.049a6 6 0 0 0 0 12h20.047a6 6 0 0 0 0-12z"/><path d="m380.7 274.43h20.047a6 6 0 0 0 0-12h-20.047a6 6 0 0 0 0 12z"/><path d="m380.7 251.8h20.047a6 6 0 0 0 0-12h-20.047a6 6 0 0 0 0 12z"/><path d="m94.014 217.688h35.424a6 6 0 0 0 0-12h-35.424a6 6 0 0 0 0 12z"/><path d="m129.438 228.648h-35.424a6 6 0 1 0 0 12h35.424a6 6 0 0 0 0-12z"/><path d="m129.438 274.567h-35.424a6 6 0 0 0 0 12h35.424a6 6 0 0 0 0-12z"/><path d="m129.438 251.607h-35.424a6 6 0 1 0 0 12h35.424a6 6 0 0 0 0-12z"/><path d="m70.343 318.779h353.144a6 6 0 0 0 6-6v-93.55a6 6 0 0 0 -6-6h-10.162v-9.811a6 6 0 0 0 -6-6h-9.519v-11.552a6 6 0 0 0 -12 0v11.552h-9.52a6 6 0 0 0 -6 6v9.811h-4.162v-40.392a56.235 56.235 0 1 0 -58.6-75.793h-26.224v-23.106a6 6 0 0 0 -6-6h-11.364v-27.819a6 6 0 0 0 -6-6h-38.511v-18.119a6 6 0 0 0 -12 0v18.119h-38.007a6 6 0 0 0 -6 6v27.819h-11.361a6 6 0 0 0 -6 6v70.724l-12.587 6.194v-12.773a6 6 0 0 0 -6-6h-11.712v-4.944a6 6 0 0 0 -12 0v4.944h-11.712a6 6 0 0 0 -6 6v36.11l-18.353 9.031a6 6 0 0 0 -3.35 5.383v124.172a6 6 0 0 0 6 6zm311.943-109.361h19.039v3.811h-19.039zm35.2 15.811v81.55h-51.362v-81.55zm-57.362-152.541a44.241 44.241 0 1 1 -44.236 44.237 44.287 44.287 0 0 1 44.236-44.237zm-55.673 36.356a56.439 56.439 0 0 0 -.563 7.881 55.778 55.778 0 0 0 11.148 33.615 56.573 56.573 0 0 0 39.088 22.281v133.958h-72.824v-197.735zm-129.033-62.925h76.518v21.819h-76.518zm93.882 33.819v226.841h-111.243v-226.841zm-171.254 64.145h23.424v12.678l-23.424 11.527zm-21.7 48.259 69.714-34.305v148.742h-69.717z"/><path d="m360.211 134.421c-.029 0-.058 0-.087 0s-.058 0-.087 0a5.891 5.891 0 0 1 -5.8-5.881 6 6 0 1 0 -12 0 17.9 17.9 0 0 0 11.886 16.828v2.132a6 6 0 0 0 12 0v-2.129a17.873 17.873 0 0 0 -6-34.714 5.885 5.885 0 1 1 5.886-5.885 6 6 0 0 0 12 0 17.9 17.9 0 0 0 -11.886-16.828v-1.591a6 6 0 0 0 -12 0v1.588a17.873 17.873 0 0 0 6 34.713 5.884 5.884 0 0 1 .087 11.767z"/></g></svg>