<svg height="512" viewBox="0 0 59 58" width="512" xmlns="http://www.w3.org/2000/svg"><g id="029---Courts" fill="none" transform="translate(-1)"><path id="Shape" d="m38 23.106v4.35c0 2.11-5.82 3.83-13 3.83s-13-1.72-13-3.83v-4.35z" fill="#a56a43"/><path id="Shape" d="m47 48.5v5c0 2.49-9.85 4.5-22 4.5s-22-2.01-22-4.5v-5z" fill="#a56a43"/><path id="Shape" d="m31 11 7.1-2.7 17.5-6.03c1.3187771-.57442297 2.8592107-.1802532 3.74.957.5010642.61413075.7096762 1.41610282.5713743 2.19654788-.1383018.78044506-.6097899 1.4618973-1.2913743 1.86645212l-24.62 10.256z" fill="#805333"/><g fill="#2fa8cc"><path id="Shape" d="m6 37c-.26519481-.0000566-.51950727-.1054506-.707-.293l-4-4c-.25995658-.2510745-.3642126-.6228779-.27269716-.9725073.09151544-.3496295.3645604-.6226744.71418984-.7141899.34962943-.0915154.72143285.0127406.97250732.2726972l4 4c.28590792.2859943.37142191.7160366.21667798 1.0896546-.15474393.3736179-.51928208.6172591-.92367798.6173454z"/><path id="Shape" d="m10 35c-.35832785.001065-.68983686-.1896767-.869-.5l-4-7c-.27614237-.4796593-.11115931-1.0923576.3685-1.3685s1.09235763-.1111593 1.3685.3685l4 7c.1330721.2301014.1690579.5037153.1000083.7603999-.0690497.2566846-.2374526.4753167-.4680083.6076001-.1519915.0876108-.3245699.1331715-.5.132z"/><path id="Shape" d="m44 37c-.4043959-.0000863-.7689341-.2437275-.923678-.6173454-.1547439-.373618-.0692299-.8036603.216678-1.0896546l4-4c.3923789-.3789722 1.0160848-.3735524 1.4018186.0121814s.3911536 1.0094397.0121814 1.4018186l-4 4c-.1874927.1875494-.4418052.2929434-.707.293z"/><path id="Shape" d="m40 35c-.1754301.0011715-.3480085-.0443892-.5-.132-.4792509-.2740357-.6457673-.8845957-.372-1.364l4-7c.2805182-.4650043.8808858-.6211324 1.3523981-.3516968.4715124.2694357.6418041.8659405.3836019 1.3436968l-4 7c-.1772528.3103154-.5066322.5024533-.864.504z"/></g><path id="Shape" d="m34.18 20.156c2.36.7 3.82 1.66 3.82 2.71 0 2.12-5.82 3.83-13 3.83s-13-1.71-13-3.83c0-1.05 1.46-2.01 3.82-2.71z" fill="#cb8252"/><path id="Shape" d="m16 11.106v10.994c.83.88 4.55 1.54 9 1.54s8.17-.66 9-1.54v-10.994z" fill="#a56a43"/><path id="Shape" d="m38 4.106v4.24c0 3.082-9.92 3.82-13 3.82s-13-.738-13-3.82v-4.24z" fill="#cb8252"/><ellipse id="Oval" cx="25" cy="4.106" fill="#cf976a" rx="13" ry="4"/><path id="Shape" d="m43.878 41.973c.051.1 3.058 6.127 2.974 5.975.0806541.1575275.1308655.3288569.148.505 0 2.49-9.85 4.5-22 4.5s-22-2.01-22-4.5c.01713448-.1761431.06734588-.3474725.148-.505-.084.152 2.923-5.875 2.974-5.975z" fill="#cb8252"/><ellipse id="Oval" cx="25" cy="42.5" fill="#cf976a" rx="19" ry="4.5"/></g></svg>