<svg height="512" viewBox="0 0 512 512" width="512" xmlns="http://www.w3.org/2000/svg"><path d="m136 333.333h296v130.667h-296z" fill="#4b55a5"/><path d="m136 365.333h168v98.667h-168z" fill="#6478b9"/><path d="m192 397.333h56a16 16 0 0 1 16 16v50.667a0 0 0 0 1 0 0h-88a0 0 0 0 1 0 0v-50.667a16 16 0 0 1 16-16z" fill="#353744"/><path d="m64 301.333h384a0 0 0 0 1 0 0v16a16 16 0 0 1 -16 16h-352a16 16 0 0 1 -16-16v-16a0 0 0 0 1 0 0z" fill="#d7e6f0"/><path d="m256 301.333h176a16 16 0 0 1 16 16v16a0 0 0 0 1 0 0h-208a0 0 0 0 1 0 0v-16a16 16 0 0 1 16-16z" fill="#a5c3dc" transform="matrix(-1 0 0 -1 688 634.667)"/><path d="m80 464h352a16 16 0 0 1 16 16v16a0 0 0 0 1 0 0h-384a0 0 0 0 1 0 0v-16a16 16 0 0 1 16-16z" fill="#d7e6f0"/><path d="m240 464h208a0 0 0 0 1 0 0v16a16 16 0 0 1 -16 16h-176a16 16 0 0 1 -16-16v-16a0 0 0 0 1 0 0z" fill="#a5c3dc" transform="matrix(-1 0 0 -1 688 960)"/><path d="m80 333.333h64a0 0 0 0 1 0 0v24a8 8 0 0 1 -8 8h-48a8 8 0 0 1 -8-8v-24a0 0 0 0 1 0 0z" fill="#a5c3dc"/><path d="m80 333.333h24a0 0 0 0 1 0 0v24a8 8 0 0 1 -8 8h-8a8 8 0 0 1 -8-8v-24a0 0 0 0 1 0 0z" fill="#d7e6f0"/><path d="m88 432h48a8 8 0 0 1 8 8v24a0 0 0 0 1 0 0h-64a0 0 0 0 1 0 0v-24a8 8 0 0 1 8-8z" fill="#a5c3dc"/><path d="m88 432h8a8 8 0 0 1 8 8v24a0 0 0 0 1 0 0h-24a0 0 0 0 1 0 0v-24a8 8 0 0 1 8-8z" fill="#d7e6f0"/><path d="m88 365.333h48v66.667h-48z" fill="#a5c3dc"/><path d="m88 381.333h8a16 16 0 0 1 16 16v34.667a0 0 0 0 1 0 0h-24a0 0 0 0 1 0 0v-50.667a0 0 0 0 1 0 0z" fill="#d7e6f0"/><path d="m208 333.333h64a0 0 0 0 1 0 0v24a8 8 0 0 1 -8 8h-48a8 8 0 0 1 -8-8v-24a0 0 0 0 1 0 0z" fill="#a5c3dc"/><path d="m208 333.333h24a0 0 0 0 1 0 0v24a8 8 0 0 1 -8 8h-8a8 8 0 0 1 -8-8v-24a0 0 0 0 1 0 0z" fill="#d7e6f0"/><path d="m216 432h48a8 8 0 0 1 8 8v24a0 0 0 0 1 0 0h-64a0 0 0 0 1 0 0v-24a8 8 0 0 1 8-8z" fill="#a5c3dc"/><path d="m216 432h8a8 8 0 0 1 8 8v24a0 0 0 0 1 0 0h-24a0 0 0 0 1 0 0v-24a8 8 0 0 1 8-8z" fill="#d7e6f0"/><path d="m216 365.333h48v66.667h-48z" fill="#a5c3dc"/><path d="m216 381.333h8a16 16 0 0 1 16 16v34.667a0 0 0 0 1 0 0h-24a0 0 0 0 1 0 0v-50.667a0 0 0 0 1 0 0z" fill="#d7e6f0"/><path d="m64 301.333 88-88 88 88z" fill="#55525b"/><path d="m152 237.333-64 64h24l52-52z" fill="#353744"/><path d="m240 301.333-88-88h201.373a16 16 0 0 1 11.313 4.687l83.314 83.313z" fill="#353744"/><path d="m272 16h-32a80 80 0 0 0 -80 80c0 49.994 47.838 96.444 65.527 111.911a21.979 21.979 0 0 0 14.473 5.422h32a21.979 21.979 0 0 0 14.473-5.422c17.689-15.467 65.527-61.917 65.527-111.911a80 80 0 0 0 -80-80z" fill="#f5871e"/><path d="m240 16a80 80 0 0 0 -80 80c0 49.994 47.838 96.444 65.527 111.911a21.979 21.979 0 0 0 14.473 5.422 21.979 21.979 0 0 0 14.473-5.422c17.689-15.467 65.527-61.917 65.527-111.911a80 80 0 0 0 -80-80z" fill="#fabe19"/><circle cx="240" cy="96" fill="#d7e6f0" r="56"/><path d="m251.314 107.314-16.14 16.14a4.543 4.543 0 0 1 -1.96 1.153l-22.705 6.487a4.532 4.532 0 0 1 -4.45-1.153 4.532 4.532 0 0 1 -1.153-4.45l6.487-22.7a4.543 4.543 0 0 1 1.153-1.96l16.14-16.14z" fill="#55525b"/><path d="m251.314 107.314 16.14-16.14a4.543 4.543 0 0 0 1.153-1.96l6.487-22.7a4.532 4.532 0 0 0 -1.153-4.45 4.532 4.532 0 0 0 -4.45-1.153l-22.7 6.487a4.543 4.543 0 0 0 -1.96 1.153l-16.14 16.14z" fill="#f04b37"/><circle cx="240" cy="96" fill="#fabe19" r="16"/><circle cx="240" cy="96" fill="#55525b" r="8"/><g fill="#f5871e"><path d="m462.177 91.632-36.523-34.089a5.751 5.751 0 0 0 -5.955-1.172 5.9 5.9 0 0 0 -3.699 5.569v18.06h-40a8 8 0 0 0 -8 8v16a8 8 0 0 0 8 8h40v18.06a5.9 5.9 0 0 0 3.7 5.569 5.751 5.751 0 0 0 5.955-1.172l36.523-34.089a5.736 5.736 0 0 0 1.822-4.195v-.346a5.736 5.736 0 0 0 -1.823-4.195z"/><path d="m96 61.94a5.9 5.9 0 0 0 -3.7-5.569 5.751 5.751 0 0 0 -5.955 1.172l-36.522 34.089a5.736 5.736 0 0 0 -1.823 4.195v.346a5.736 5.736 0 0 0 1.823 4.195l36.523 34.089a5.751 5.751 0 0 0 5.955 1.172 5.9 5.9 0 0 0 3.699-5.569v-18.06h40a8 8 0 0 0 8-8v-16a8 8 0 0 0 -8-8h-40z"/></g></svg>