<svg id="Capa_1" enable-background="new 0 0 512 512" height="512" viewBox="0 0 512 512" width="512" xmlns="http://www.w3.org/2000/svg"><path d="m426 251h-155v-46c0-8.284-6.716-15-15-15s-15 6.716-15 15v46h-155c-8.284 0-15 6.716-15 15v61c0 8.284 6.716 15 15 15s15-6.716 15-15v-46h140v46c0 8.284 6.716 15 15 15s15-6.716 15-15v-46h140v46c0 8.284 6.716 15 15 15s15-6.716 15-15v-61c0-8.284-6.716-15-15-15z" fill="#e1f5ff"/><path d="m426 251h-155v-46c0-8.284-6.716-15-15-15v152c8.284 0 15-6.716 15-15v-46h140v46c0 8.284 6.716 15 15 15s15-6.716 15-15v-61c0-8.284-6.716-15-15-15z" fill="#c8e1f5"/><path d="m326 512h-140c-8.284 0-15-6.716-15-15v-10c0-46.869 38.131-85 85-85s85 38.131 85 85v10c0 8.284-6.716 15-15 15z" fill="#ff823c"/><path d="m326 512c8.284 0 15-6.716 15-15v-10c0-46.869-38.131-85-85-85v110z" fill="#f06923"/><path d="m256 432c-33.084 0-60-26.916-60-60s26.916-60 60-60 60 26.916 60 60-26.916 60-60 60z" fill="#ffd0af"/><path d="m316 372c0-33.084-26.916-60-60-60v120c33.084 0 60-26.916 60-60z" fill="#fabe8c"/><path d="m497 512h-140c-8.284 0-15-6.716-15-15v-10c0-46.869 38.131-85 85-85s85 38.131 85 85v10c0 8.284-6.716 15-15 15z" fill="#64e6e6"/><path d="m497 512c8.284 0 15-6.716 15-15v-10c0-46.869-38.131-85-85-85v110z" fill="#00cdcd"/><path d="m427 432c-33.084 0-60-26.916-60-60s26.916-60 60-60 60 26.916 60 60-26.916 60-60 60z" fill="#ffd0af"/><path d="m487 372c0-33.084-26.916-60-60-60v120c33.084 0 60-26.916 60-60z" fill="#fabe8c"/><path d="m155 512h-140c-8.284 0-15-6.716-15-15v-10c0-46.869 38.131-85 85-85s85 38.131 85 85v10c0 8.284-6.716 15-15 15z" fill="#00afff"/><path d="m155 512c8.284 0 15-6.716 15-15v-10c0-46.869-38.131-85-85-85v110z" fill="#008cfa"/><path d="m85 432c-33.084 0-60-26.916-60-60s26.916-60 60-60 60 26.916 60 60-26.916 60-60 60z" fill="#ffd0af"/><path d="m145 372c0-33.084-26.916-60-60-60v120c33.084 0 60-26.916 60-60z" fill="#fabe8c"/><path d="m326 220h-140c-8.284 0-15-6.716-15-15v-30c0-46.869 38.131-85 85-85s85 38.131 85 85v30c0 8.284-6.716 15-15 15z" fill="#556e87"/><path d="m326 220c8.284 0 15-6.716 15-15v-30c0-46.869-38.131-85-85-85v130z" fill="#435569"/><path d="m256 120c-33.084 0-60-26.916-60-60s26.916-60 60-60 60 26.916 60 60-26.916 60-60 60z" fill="#ffd0af"/><path d="m316 60c0-33.084-26.916-60-60-60v120c33.084 0 60-26.916 60-60z" fill="#fabe8c"/></svg>