<svg id="Layer_3" enable-background="new 0 0 64 64" height="512" viewBox="0 0 64 64" width="512" xmlns="http://www.w3.org/2000/svg"><path d="m48 58h14v4h-14z" fill="#f5b953"/><path d="m48 50h14v4h-14z" fill="#f5b953"/><path d="m46 54h14v4h-14z" fill="#f9d18b"/><path d="m46 46h14v4h-14z" fill="#f9d18b"/><path d="m2 58h14v4h-14z" fill="#f5b953" transform="matrix(-1 0 0 -1 18 120)"/><path d="m2 50h14v4h-14z" fill="#f5b953" transform="matrix(-1 0 0 -1 18 104)"/><path d="m4 54h14v4h-14z" fill="#f9d18b" transform="matrix(-1 0 0 -1 22 112)"/><path d="m4 46h14v4h-14z" fill="#f9d18b" transform="matrix(-1 0 0 -1 22 96)"/><circle cx="32" cy="54" fill="#f5b953" r="8"/><circle cx="32" cy="54" fill="#f9d18b" r="5"/><path d="m45 12-1-4h4l-1 4" fill="#c18e59"/><path d="m50 24h-8v-4c0-2.209 1.791-4 4-4 2.209 0 4 1.791 4 4z" fill="#976947"/><path d="m17 12-1-4h4l-1 4" fill="#c18e59"/><path d="m22 24h-8v-4c0-2.209 1.791-4 4-4 2.209 0 4 1.791 4 4z" fill="#976947"/><g fill="#f5b953"><path d="m33 49h-2v2h-1c-.404 0-.769.243-.924.617s-.069.804.217 1.09l2.293 2.293h-2.586v2h2v2h2v-2h1c.404 0 .769-.243.924-.617s.069-.804-.217-1.09l-2.293-2.293h2.586v-2h-2z"/><path d="m10 29c1.103 0 2 .897 2 2h2c0-1.859-1.28-3.411-3-3.858v-2.142h-2v2.142c-1.72.447-3 1.999-3 3.858 0 2.206 1.794 4 4 4 1.103 0 2 .897 2 2s-.897 2-2 2-2-.897-2-2h-2c0 1.859 1.28 3.411 3 3.858v2.142h2v-2.142c1.72-.447 3-1.999 3-3.858 0-2.206-1.794-4-4-4-1.103 0-2-.897-2-2s.897-2 2-2z"/><path d="m54 33c-1.103 0-2-.897-2-2s.897-2 2-2 2 .897 2 2h2c0-1.859-1.28-3.411-3-3.858v-2.142h-2v2.142c-1.72.447-3 1.999-3 3.858 0 2.206 1.794 4 4 4 1.103 0 2 .897 2 2s-.897 2-2 2-2-.897-2-2h-2c0 1.859 1.28 3.411 3 3.858v2.142h2v-2.142c1.72-.447 3-1.999 3-3.858 0-2.206-1.794-4-4-4z"/></g><path d="m38 38v-22h8c1.105 0 2-.895 2-2v-2h-32v2c0 1.105.895 2 2 2h8v22h4v-10h4v10" fill="#4d5d7a"/><path d="m26 24v-8h-8c-1.105 0-2-.895-2-2v-2h32v2c0 1.105-.895 2-2 2h-8v8" fill="#e39854"/><path d="m32 10c-1.657 0-3-1.343-3-3v-2c0-1.657 1.343-3 3-3 1.657 0 3 1.343 3 3v2c0 1.657-1.343 3-3 3z" fill="#efbe9a"/><path d="m24 42h6v-4h-4c-1.105 0-2 .895-2 2z" fill="#e39854"/><path d="m40 42h-6v-4h4c1.105 0 2 .895 2 2z" fill="#e39854"/></svg>