<svg height="512" viewBox="0 0 60 60" width="512" xmlns="http://www.w3.org/2000/svg"><g id="Page-1" fill="none" fill-rule="evenodd"><g id="007---Archery" fill-rule="nonzero" transform="translate(0 -1)"><path id="Shape" d="m30 2c-11.6807264-.00351305-21.80698968 8.0818886-24.38905911 19.4736531-2.58206942 11.3917646 3.06837058 23.0531305 13.60905911 28.0863469 2.1459831 1.0298176 4.4296177 1.7438744 6.78 2.12 2.6496.4266667 5.3504.4266667 8 0 4.6422345-.7561869 8.9777005-2.8043567 12.51-5.91 7.8100532-6.8710325 10.5492867-17.8602355 6.8780352-27.5931657-3.6712515-9.73293018-12.985727-16.1754862-23.3880352-16.1768343zm0 44c-10.4934102 0-19-8.5065898-19-19s8.5065898-19 19-19 19 8.5065898 19 19c-.0093728 10.4895255-8.5104745 18.9906272-19 19z" fill="#37474f"/><path id="Shape" d="m30 8c-10.4934102 0-19 8.5065898-19 19s8.5065898 19 19 19 19-8.5065898 19-19c-.0093728-10.4895255-8.5104745-18.99062721-19-19zm0 32c-7.1797017 0-13-5.8202983-13-13s5.8202983-13 13-13 13 5.8202983 13 13c-.0066157 7.1769596-5.8230404 12.9933843-13 13z" fill="#00bcd4"/><path id="Shape" d="m30 8c-.506 0-1 .037-1.5.076 9.8781364.77398056 17.4992499 9.0155882 17.4992499 18.924s-7.6211135 18.1500194-17.4992499 18.924c.5.039.994.076 1.5.076 10.4934101-.0000002 18.9999997-8.5065899 18.9999997-19s-8.5065896-18.99999984-18.9999997-19z" fill="#00838f"/><path id="Shape" d="m30 14c-7.1797017 0-13 5.8202983-13 13s5.8202983 13 13 13 13-5.8202983 13-13c-.0066157-7.1769596-5.8230404-12.9933843-13-13zm0 20c-3.8659932 0-7-3.1340068-7-7s3.1340068-7 7-7 7 3.1340068 7 7c-.0044086 3.8641657-3.1358343 6.9955914-7 7z" fill="#f44335"/><path id="Shape" d="m30 14c-.501392.0024492-1.0022248.0338348-1.5.094 6.5542288.7579006 11.49961 6.3080967 11.49961 12.906s-4.9453812 12.1480994-11.49961 12.906c4.8032899.5803558 9.531498-1.55476 12.272292-5.5417958 2.740794-3.9870359 3.0406816-9.1662963.7783729-13.44302s-6.7124919-6.9432834-11.5506649-6.9211842z" fill="#c81e1e"/><circle id="Oval" cx="30" cy="27" fill="#ffdc00" r="7"/><path id="Shape" d="m30 20c-.5045212.0011157-1.0074432.0567724-1.5.166 3.2042518.7105254 5.4845977 3.5519159 5.4845977 6.834s-2.2803459 6.1234746-5.4845977 6.834c2.6218333.5813468 5.3451349-.3885112 7.009298-2.4962434 1.6641631-2.1077321 1.9757869-4.981734.8020645-7.3971739-1.1737223-2.4154398-3.6258571-3.9464627-6.3113625-3.9405827z" fill="#fec108"/><path id="Shape" d="m19.22 49.56-4.94 9.89c-.1710655.3395038-.5198431.5526457-.9.55h-5.76c-.3483719.002433-.67290102-.1766148-.8566239-.4726128-.18372288-.2959979-.20015578-.6662778-.0433761-.9773872l6.51-13.01c1.7930713 1.6209379 3.8104946 2.9748681 5.99 4.02z" fill="#91562d"/><path id="Shape" d="m13.23 45.54-.857 1.713c1.2105442.8828262 2.4980685 1.6549392 3.847 2.307l-4.94 9.89c-.1710655.3395038-.5198431.5526457-.9.5500243l3-.0000243c.3801569.0026457.7289345-.2104962.9-.55l4.94-9.89c-2.1795054-1.0451319-4.1969287-2.3990621-5.99-4.02z" fill="#783e22"/><path id="Shape" d="m46.51 45.77 6.38 12.78c.1559692.3095182.1405453.6777279-.0407631.9731178-.1813083.29539-.5026437.4758333-.8492369.4768822h-5.77c-.3765582-.0011413-.7205498-.2137203-.89-.55l-4.87-9.75" fill="#91562d"/><path id="Shape" d="m52.89 58.55-6.38-12.78-2.264 1.473 5.644 11.307c.1559692.3095182.1405453.6777279-.0407631.9731178-.1813083.29539-.5026437.4758333-.8492369.4768822h3c.3465932-.0010489.6679286-.1814922.8492369-.4768822.1813084-.2953899.1967323-.6635996.0407631-.9731178z" fill="#783e22"/><path id="Shape" d="m34 51.68v5.32c0 .5522847-.4477153 1-1 1h-6c-.5522847 0-1-.4477153-1-1v-5.32c2.6496.4266667 5.3504.4266667 8 0z" fill="#6d4122"/><path id="Shape" d="m9.109 6.5-.472 2.353c-.07927206.39554831-.38845169.70472794-.784.784l-2.353.472c-.32691281.0642989-.66437745-.0384404-.9-.274l-3.3-3.3c-.26038996-.26081315-.35621766-.6437094-.24937711-.99642958.10684056-.35272018.39902933-.61808446.76037711-.69057042l1.049-.21c.39622209-.07905689.70594311-.38877791.785-.785l.21-1.049c.07248596-.36134778.33785024-.65353655.69057042-.76037711.35272018-.10684055.73561643-.01101285.99642958.24937711l3.3 3.3c.23533093.23850984.33557172.57902819.267.907z" fill="#ffe0b2"/><path id="Shape" d="m50.891 6.5.472 2.357c.0792721.39554831.3884517.70472794.784.784l2.357.472c.3269128.0642989.6643774-.0384404.9-.274l3.3-3.3c.2619745-.25968497.3597156-.64250222.2542967-.99599025-.1054189-.35348802-.3968767-.62023652-.7582967-.69400975l-1.049-.21c-.3962221-.07905689-.7059431-.38877791-.785-.785l-.21-1.049c-.072486-.36134778-.3378502-.65353655-.6905704-.76037711-.3527202-.10684055-.7356164-.01101285-.9964296.24937711l-3.3 3.3c-.2389701.23612985-.3434028.57647539-.278.906z" fill="#ffe0b2"/><path id="Shape" d="m58.392 3.868-1.05-.21-.21-1.049c-.1447365-.72311354-.6756591-1.30790574-1.381465-1.52163422-.7058059-.21372849-1.4719583-.02170981-1.993535.49963422l-3.3 3.3c-.4736719.47216911-.6790821 1.15036054-.547 1.806l.472 2.356c.008.041.03.075.041.115l-.8.8c-4.928371-5.69463187-12.0878864-8.96690241-19.619-8.96690241s-14.690629 3.27227054-19.619 8.96690241l-.8-.8c.011-.04.033-.074.041-.114l.472-2.357c.1320821-.65563946-.0733281-1.33383089-.547-1.806l-3.3-3.3c-.52102426-.52586169-1.28990002-.7209225-1.99859554-.50703597-.70869553.21388653-1.24128704.80173424-1.38440446 1.52803597l-.21 1.05-1.05.21c-.72336242.14478624-1.30828682.67601742-1.52183924 1.38214178-.21355242.70612435-.02105305 1.47247095.50083924 1.99385822l3.3 3.3c.37449527.3746092.88230355.5853568 1.412.586.13229228-.0000925.26425683-.013155.394-.039l2.357-.471c.04-.008.074-.031.113-.041l.955.954c-7.80108527 10.5012929-6.56122249 25.1682865 2.892 34.211l-6.188 12.364c-.3095691.6212297-.27491433 1.3585437.09155859 1.9479985.36647291.5894548 1.01235804.9467577 1.70644141.9440015h5.76c.7607744.0069544 1.4591387-.4198238 1.8-1.1l4.512-9.035c1.7048289.7388654 3.4844861 1.291404 5.308 1.648v4.487c0 1.1045695.8954305 2 2 2h6c1.1045695 0 2-.8954305 2-2v-4.487c1.7135951-.3337419 3.3888596-.8406769 5-1.513l4.445 8.9c.341654.6723784 1.030804 1.0970647 1.785 1.1h5.77c.6938986-.0007135 1.3378417-.3610455 1.7014214-.9520663s.3948335-1.3282623.0825786-1.9479337l-6.048-12.113c9.6732789-9.0066566 11.0286124-23.8459872 3.147-34.456l.955-.954c.039.01.073.033.113.041l2.356.471c.1300803.0258465.2623767.0389087.395.039.5296964-.0006432 1.0375047-.2113908 1.412-.586l3.3-3.3c.5218923-.52138727.7143917-1.28773387.5008392-1.99385822-.2135524-.70612436-.7984768-1.23735554-1.5218392-1.38214178zm-53.092 5.26-3.3-3.299 1.05-.21c.79228167-.15669126 1.41180365-.77581839 1.569-1.568l.21-1.051 3.3 3.3-.473 2.357zm24.7-6.128c7.0004697.00022974 13.6503378 3.06355356 18.2 8.384l-2.835 2.835c-3.7930038-4.57302712-9.4256655-7.21915613-15.367-7.21915613s-11.5739962 2.64612901-15.367 7.21915613l-2.831-2.835c4.5496622-5.32044644 11.1995303-8.38377026 18.2-8.384zm2.793 25.207c.3904999.3903819 1.0235001.3903819 1.414 0l1.765-1.765c.017.184.028.37.028.558 0 3.3137085-2.6862915 6-6 6s-6-2.6862915-6-6c0-.188.011-.374.028-.558l1.765 1.765c.3923789.3789722 1.0160848.3735524 1.4018186-.0121814s.3911536-1.0094397.0121814-1.4018186l-2.537-2.537c1.0257759-1.9986491 3.0834884-3.2554597 5.33-3.2554597s4.3042241 1.2568106 5.33 3.2554597l-2.537 2.537c-.3903819.3904999-.3903819 1.0235001 0 1.414zm-2.793-9.207c-2.7682423.0031906-5.3377472 1.4385118-6.792 3.794l-2.875-2.875c2.2505647-3.0909545 5.8435145-4.91933 9.667-4.91933s7.4164353 1.8283755 9.667 4.91933l-2.875 2.875c-1.4542528-2.3554882-4.0237577-3.7908094-6.792-3.794zm-7.671 5.744c-.9690041 3.2736428.246243 6.8014893 3.0257989 8.7838552 2.779556 1.9823659 6.5108462 1.9823659 9.2904022 0 2.7795559-1.9823659 3.994803-5.5102124 3.0257989-8.7838552l3.067-3.068c2.5178768 5.047218 1.1808447 11.1667319-3.2126094 14.7039163-4.3934541 3.5371845-10.6573271 3.5371845-15.0507812 0-4.3934541-3.5371844-5.7304862-9.6566983-3.2126094-14.7039163zm7.671 16.256c4.9643652.0056987 9.5596133-2.6209957 12.0738965-6.9015721 2.5142832-4.2805763 2.5706504-9.5732742.1481035-13.9064279l2.908-2.907c4.8524584 7.5292043 3.43038 17.4807113-3.3366596 23.3494799s-16.8196412 5.8687686-23.5866808 0-8.189118-15.8202756-3.3366596-23.3494799l2.908 2.907c-2.4225469 4.3331537-2.3661797 9.6258516.1481035 13.9064279 2.5142832 4.2805764 7.1095313 6.9072708 12.0738965 6.9015721zm11.093-22.507c-2.6382441-3.461267-6.7409084-5.4927025-11.093-5.4927025s-8.4547559 2.0314355-11.093 5.4927025l-2.853-2.853c3.4113005-4.2008815 8.5344959-6.6402347 13.946-6.6402347s10.5346995 2.4393532 13.946 6.6402347zm-27.713 40.507h-5.766l5.943-11.875c1.343392 1.099497 2.7928675 2.0625758 4.327 2.875zm19.62-2h-6v-4.178c1.9929592.2373324 4.0070408.2373324 6 0zm19 2h-5.766l-4.422-8.85c1.5439623-.7909968 3.0051927-1.7339962 4.362-2.815zm2-32c.0110326 10.3935192-6.6692885 19.6130296-16.5492797 22.8396591-9.8799911 3.2266295-20.7141456-.2729645-26.8396459-8.6696072-6.12550037-8.3966427-6.1501538-19.7819601-.0610744-28.2050519l2.867 2.866c-5.62254423 8.3393813-4.17737284 19.556991 3.3752341 26.1990097 7.552607 6.6420187 18.8629248 6.6420187 26.4155318 0 7.5526069-6.6420187 8.9977783-17.8596284 3.3752341-26.1990097l2.867-2.866c2.9614782 4.0800798 4.5543363 8.9934342 4.55 14.035zm.7-17.872-2.356-.472-.472-2.356 3.3-3.3.21 1.05c.1570526.79189428.7761057 1.41094742 1.568 1.568l1.05.212z" fill="#000"/></g></g></svg>