<svg height="512" viewBox="0 0 512 512" width="512" xmlns="http://www.w3.org/2000/svg"><g id="User_Profile" data-name="User Profile"><g id="Flat"><rect fill="#ff9e80" height="352" rx="68" width="512" y="80"/><path d="m479.761 90.2c-35.92 167.9-185.135 293.8-363.761 293.8a371.664 371.664 0 0 1 -115.96-18.435 68.066 68.066 0 0 0 67.96 66.435h376a68.077 68.077 0 0 0 68-68v-216a68.008 68.008 0 0 0 -32.239-57.8z" fill="#ff8b6c"/><path d="m144 344a47.689 47.689 0 0 1 -33.937-14.062 47.692 47.692 0 0 1 -14.063-33.938v-11.358l16-3.2v-41.442h64v41.441l16 3.2v11.359a48.055 48.055 0 0 1 -48 48z" fill="#fac7b7"/><path d="m256 330.23v53.77h-224v-53.77a40.1 40.1 0 0 1 32.16-39.22l47.84-9.57v14.56a32 32 0 0 0 64 0v-14.56l47.84 9.57a40.1 40.1 0 0 1 32.16 39.22z" fill="#0277bd"/><path d="m223.84 291.01-1.353-.271a167.991 167.991 0 0 1 -150.487 93.261h184v-53.77a40.1 40.1 0 0 0 -32.16-39.22z" fill="#0469bc"/><path d="m88 360v24h-16v-24a8 8 0 0 1 16 0z" fill="#01579b"/><path d="m216 360v24h-16v-24a8 8 0 0 1 16 0z" fill="#01579b"/><g fill="#ffbdab"><path d="m456 216a8 8 0 0 1 -8-8v-24a8 8 0 0 1 16 0v24a8 8 0 0 1 -8 8z"/><path d="m424 216a8 8 0 0 1 -8-8v-24a8 8 0 0 1 16 0v24a8 8 0 0 1 -8 8z"/><path d="m392 216a8 8 0 0 1 -8-8v-24a8 8 0 0 1 16 0v24a8 8 0 0 1 -8 8z"/><path d="m360 216a8 8 0 0 1 -8-8v-24a8 8 0 0 1 16 0v24a8 8 0 0 1 -8 8z"/><path d="m328 216a8 8 0 0 1 -8-8v-24a8 8 0 0 1 16 0v24a8 8 0 0 1 -8 8z"/><path d="m296 216a8 8 0 0 1 -8-8v-24a8 8 0 0 1 16 0v24a8 8 0 0 1 -8 8z"/><path d="m448 152a8 8 0 0 1 8-8 8 8 0 0 1 8 8 8 8 0 0 1 -8 8 8 8 0 0 1 -8-8zm-32 0a8 8 0 0 1 8-8 8 8 0 0 1 8 8 8 8 0 0 1 -8 8 8 8 0 0 1 -8-8zm-32 0a8 8 0 0 1 8-8 8 8 0 0 1 8 8 8 8 0 0 1 -8 8 8 8 0 0 1 -8-8zm-32 0a8 8 0 0 1 8-8 8 8 0 0 1 8 8 8 8 0 0 1 -8 8 8 8 0 0 1 -8-8zm-32 0a8 8 0 0 1 8-8 8 8 0 0 1 8 8 8 8 0 0 1 -8 8 8 8 0 0 1 -8-8zm-32 0a8 8 0 0 1 8-8 8 8 0 0 1 8 8 8 8 0 0 1 -8 8 8 8 0 0 1 -8-8z"/></g><path d="m456 272h-96a8 8 0 0 1 0-16h96a8 8 0 0 1 0 16zm-128 0a8 8 0 1 1 8-8 8.011 8.011 0 0 1 -8 8zm-32 0a8 8 0 1 1 8-8 8.011 8.011 0 0 1 -8 8z" fill="#ff6e40"/><path d="m456 304h-160a8 8 0 0 1 0-16h160a8 8 0 0 1 0 16z" fill="#ff6e40"/><path d="m456 336h-160a8 8 0 0 1 0-16h160a8 8 0 0 1 0 16z" fill="#ff6e40"/><path d="m456 368a8 8 0 1 1 8-8 8.011 8.011 0 0 1 -8 8zm-32 0a8 8 0 1 1 8-8 8.011 8.011 0 0 1 -8 8zm-32 0h-96a8 8 0 0 1 0-16h96a8 8 0 0 1 0 16z" fill="#ff6e40"/><path d="m81.329 202.514a60.82 60.82 0 0 1 12.423-51.059 64.289 64.289 0 0 1 99.311 0 60.8 60.8 0 0 1 12.437 51.007l-15.113 2.456a26.139 26.139 0 0 0 -14.019-12.407c-6.008 2.389-20.231 7.489-32.368 7.489s-26.363-5.1-32.367-7.489c-3.686 1.424-11.018 5.213-14.631 13.709z" fill="#525252"/><path d="m143.407 280c-24.762 0-46.319-15.539-53.639-38.667l-.192-.722-8.294-38.311 1-2.339c4.283-10.073 12.581-16.3 19.447-19.936a23.7 23.7 0 0 1 19.082-1.281c6.635 2.382 16.108 5.256 23.189 5.256s16.584-2.882 23.226-5.267a23.833 23.833 0 0 1 19.2 1.34c6.381 3.376 13.941 8.964 18.292 17.73l1.246 2.51-8.914 41.02c-7.324 23.128-28.88 38.667-53.643 38.667z" fill="#ffdecf"/><path d="m119.5 256a96.636 96.636 0 0 1 -24.566-3.16 56.084 56.084 0 0 0 48.473 27.16c24.763 0 46.319-15.539 53.64-38.667l8.125-37.388a96.485 96.485 0 0 1 -85.672 52.055z" fill="#ffd3c2"/><circle cx="108" cy="204" fill="#fff5f2" r="12"/><circle cx="128" cy="224" fill="#fff5f2" r="8"/><circle cx="68" cy="316" fill="#4baee0" r="12"/><circle cx="88" cy="336" fill="#4baee0" r="8"/><circle cx="128" cy="144" fill="#848484" r="8"/><circle cx="144" cy="160" fill="#848484" r="8"/></g></g></svg>