<svg id="Layer_1" enable-background="new 0 0 256 256" height="512" viewBox="0 0 256 256" width="512" xmlns="http://www.w3.org/2000/svg"><g><g><path d="m204.636 252h-165.84c-5.523 0-10-4.477-10-10v-228c0-5.523 4.477-10 10-10h165.84c5.523 0 10 4.477 10 10v228c0 5.523-4.478 10-10 10z" fill="#f4efed"/></g><g><path d="m204.636 4h-10c5.523 0 10 4.477 10 10v228c0 5.523-4.477 10-10 10h10c5.523 0 10-4.477 10-10v-228c0-5.523-4.478-10-10-10z" fill="#d6d1cf"/></g><g><path d="m38.796 252h10c-5.523 0-10-4.477-10-10v-228c0-5.523 4.477-10 10-10h-10c-5.523 0-10 4.477-10 10v228c0 5.523 4.477 10 10 10z" fill="#fff"/></g><g><path d="m204.636 254h-165.84c-6.617 0-12-5.383-12-12v-228c0-6.617 5.383-12 12-12h165.84c6.617 0 12 5.383 12 12v228c0 6.617-5.384 12-12 12zm-165.84-248c-4.411 0-8 3.589-8 8v228c0 4.411 3.589 8 8 8h165.84c4.411 0 8-3.589 8-8v-228c0-4.411-3.589-8-8-8z" fill="#690589"/></g><g><path d="m38.796 68.719c-1.104 0-2-.896-2-2v-12c0-1.104.896-2 2-2s2 .896 2 2v12c0 1.105-.896 2-2 2z" fill="#690589"/></g><g><path d="m184.235 130h-125.038c-1.104 0-2-.896-2-2s.896-2 2-2h125.038c1.104 0 2 .896 2 2s-.896 2-2 2z" fill="#690589"/></g><g><path d="m184.235 172.45h-125.038c-1.104 0-2-.896-2-2s.896-2 2-2h125.038c1.104 0 2 .896 2 2s-.896 2-2 2z" fill="#690589"/></g><g><path d="m184.235 214.899h-125.038c-1.104 0-2-.896-2-2s.896-2 2-2h125.038c1.104 0 2 .896 2 2s-.896 2-2 2z" fill="#690589"/></g><g><g><path d="m208.699 37.903h11.894v-10.439c0-3.285-2.663-5.947-5.947-5.947-3.285 0-5.947 2.663-5.947 5.947z" fill="#fcc24c"/></g><g><path d="m221.033 37.903h-12.774c-3.408 0-6.171 2.763-6.171 6.171v25.843h25.116v-25.843c0-3.408-2.763-6.171-6.171-6.171z" fill="#f4efed"/></g><g><path d="m221.033 37.903h-6.011c3.408 0 6.171 2.763 6.171 6.171v25.843h6.011v-25.843c0-3.408-2.763-6.171-6.171-6.171z" fill="#d6d1cf"/></g><g><path d="m208.259 37.903h6.011c-3.408 0-6.171 2.763-6.171 6.171v25.843h-6.011v-25.843c0-3.408 2.762-6.171 6.171-6.171z" fill="#fff"/></g><g><path d="m202.088 69.917h25.116v142.815h-25.116z" fill="#526faa"/></g><g><path d="m214.646 212.732h12.558l-6.279 10.875-6.279 10.876-6.279-10.876-6.279-10.875z" fill="#fcc24c"/></g><g><path d="m221.193 69.917h6.011v142.815h-6.011z" fill="#34518c"/></g><g><path d="m202.088 69.917h6.011v142.815h-6.011z" fill="#708dc8"/></g><g><path d="m227.204 214.732h-25.117c-1.104 0-2-.896-2-2v-142.815c0-1.104.896-2 2-2h25.117c1.104 0 2 .896 2 2v142.815c0 1.104-.895 2-2 2zm-23.117-4h21.117v-138.815h-21.117z" fill="#690589"/></g><g><path d="m227.204 71.917h-25.117c-1.104 0-2-.896-2-2v-25.843c0-4.505 3.666-8.171 8.171-8.171h12.774c4.505 0 8.171 3.666 8.171 8.171v25.843c.001 1.104-.894 2-1.999 2zm-23.117-4h21.117v-23.843c0-2.3-1.871-4.171-4.171-4.171h-12.774c-2.3 0-4.171 1.871-4.171 4.171v23.843z" fill="#690589"/></g><g><path d="m220.593 39.903h-11.894c-1.104 0-2-.896-2-2v-10.439c0-4.382 3.565-7.947 7.947-7.947s7.947 3.565 7.947 7.947v10.439c0 1.104-.896 2-2 2zm-9.894-4h7.894v-8.439c0-2.177-1.771-3.947-3.947-3.947-2.177 0-3.947 1.771-3.947 3.947z" fill="#690589"/></g><g><path d="m214.646 236.483c-.714 0-1.375-.381-1.732-1l-12.559-21.751c-.357-.619-.357-1.381 0-2s1.018-1 1.732-1h25.117c.714 0 1.375.381 1.732 1s.357 1.381 0 2l-12.558 21.751c-.357.619-1.018 1-1.732 1zm-9.094-21.751 9.094 15.751 9.094-15.751z" fill="#690589"/></g><g><path d="m193.003 127.107c-1.104 0-2-.896-2-2v-50.879c0-3.48 2.831-6.311 6.311-6.311h4.773c1.104 0 2 .896 2 2s-.896 2-2 2h-4.773c-1.274 0-2.311 1.037-2.311 2.311v50.879c0 1.105-.896 2-2 2z" fill="#690589"/></g><g><path d="m227.204 80.384h-25.117c-1.104 0-2-.896-2-2s.896-2 2-2h25.117c1.104 0 2 .896 2 2s-.895 2-2 2z" fill="#690589"/></g><g><path d="m214.646 236.483c-1.104 0-2-.896-2-2v-12.951c0-1.104.896-2 2-2s2 .896 2 2v12.951c0 1.105-.896 2-2 2z" fill="#690589"/></g></g><g><circle cx="121.716" cy="66.719" fill="#fcc24c" r="48.007"/></g><g><path d="m121.716 18.712c-1.348 0-2.68.07-4 .179 24.64 2.035 44.007 22.663 44.007 47.829s-19.367 45.794-44.007 47.829c1.32.109 2.652.179 4 .179 26.514 0 48.007-21.494 48.007-48.008s-21.493-48.008-48.007-48.008z" fill="#dea42e"/></g><g><path d="m121.716 114.727c1.348 0 2.68-.07 4-.179-24.64-2.035-44.007-22.663-44.007-47.829 0-25.165 19.367-45.794 44.007-47.829-1.32-.109-2.652-.179-4-.179-26.514 0-48.007 21.494-48.007 48.008-.001 26.514 21.493 48.008 48.007 48.008z" fill="#fce06a"/></g><g><g><path d="m117.381 93.986-27.039-25.63 9.331-9.841 18.022 17.084 29.184-25.912 8.989 10.157z" fill="#526faa"/></g></g><g><g><g><path d="m117.381 95.986c-.496 0-.991-.184-1.376-.548l-27.039-25.63c-.385-.365-.609-.868-.624-1.398s.183-1.044.548-1.429l9.33-9.841c.76-.801 2.026-.835 2.827-.076l16.691 15.822 27.812-24.693c.396-.353.922-.533 1.448-.501.53.032 1.026.273 1.377.671l8.989 10.156c.731.827.655 2.089-.17 2.822l-38.487 34.143c-.378.335-.853.502-1.326.502zm-24.211-27.706 24.256 22.993 35.621-31.6-6.337-7.16-27.687 24.582c-.774.689-1.949.67-2.704-.044l-16.571-15.709z" fill="#690589"/></g></g></g><g><path d="m121.716 116.727c-27.574 0-50.007-22.433-50.007-50.007s22.433-50.007 50.007-50.007 50.007 22.433 50.007 50.007-22.433 50.007-50.007 50.007zm0-96.015c-25.369 0-46.007 20.639-46.007 46.007s20.639 46.007 46.007 46.007 46.007-20.639 46.007-46.007-20.639-46.007-46.007-46.007z" fill="#690589"/></g></g></svg>