<?xml version="1.0" encoding="iso-8859-1"?>
<!-- Generator: Adobe Illustrator 19.0.0, SVG Export Plug-In . SVG Version: 6.00 Build 0)  -->
<svg version="1.1" id="Capa_1" xmlns="http://www.w3.org/2000/svg" xmlns:xlink="http://www.w3.org/1999/xlink" x="0px" y="0px"
	 viewBox="0 0 416.427 416.427" style="enable-background:new 0 0 416.427 416.427;" xml:space="preserve">
<g>
	<circle style="fill:#FFE600;" cx="235.52" cy="279.893" r="129.707"/>
	<path style="fill:#FFE600;" d="M235.52,416.427c-75.283,0-136.533-61.247-136.533-136.533S160.237,143.36,235.52,143.36
		s136.533,61.247,136.533,136.533S310.803,416.427,235.52,416.427z M235.52,157.013c-67.756,0-122.88,55.127-122.88,122.88
		s55.124,122.88,122.88,122.88s122.88-55.127,122.88-122.88S303.276,157.013,235.52,157.013z"/>
</g>
<polyline style="fill:#FFFFFF;" points="296.96,160.427 296.96,389.12 256.432,375.467 228.697,389.12 202.242,375.467 
	174.507,389.12 147.628,375.467 119.043,389.12 92.157,375.467 51.2,389.12 51.2,47.787 91.778,6.827 296.96,6.827 296.96,117.762 
	"/>
<path style="fill:#602F75;" d="M51.2,395.947c-1.413,0-2.813-0.44-3.99-1.287c-1.783-1.287-2.836-3.347-2.836-5.54V47.787
	c0-1.801,0.71-3.526,1.976-4.806l40.576-40.96C88.211,0.727,89.953,0,91.776,0H296.96c3.77,0,6.827,3.053,6.827,6.827V117.76
	c0,3.773-3.057,6.827-6.827,6.827c-3.77,0-6.827-3.053-6.827-6.827V13.653H94.623L58.027,50.594v329.054l31.969-10.653
	c1.727-0.601,3.62-0.447,5.25,0.387l23.89,12.133l25.547-12.206c1.92-0.913,4.147-0.887,6.033,0.073l23.837,12.107l24.67-12.146
	c1.947-0.947,4.227-0.927,6.147,0.06l23.4,12.073l24.643-12.133c1.613-0.794,3.476-0.92,5.197-0.34l31.524,10.617V160.427
	c0-3.773,3.057-6.827,6.827-6.827c3.77,0,6.827,3.053,6.827,6.827V389.12c0,2.2-1.06,4.26-2.843,5.547
	c-1.787,1.273-4.07,1.62-6.163,0.92l-37.861-12.754l-25.207,12.413c-1.94,0.954-4.221,0.94-6.147-0.06l-23.4-12.073l-24.643,12.133
	c-1.93,0.947-4.19,0.934-6.106-0.039l-23.883-12.133l-25.547,12.206c-1.917,0.92-4.137,0.893-6.033-0.073l-24.344-12.36
	l-38.25,12.747C52.654,395.834,51.927,395.947,51.2,395.947z"/>
<g>
	<path style="fill:#00E7FF;" d="M249.173,68.267H98.987c-3.77,0-6.827-3.053-6.827-6.827s3.057-6.827,6.827-6.827h150.187
		c3.77,0,6.827,3.053,6.827,6.827S252.943,68.267,249.173,68.267z"/>
	<path style="fill:#00E7FF;" d="M249.173,136.533H98.987c-3.77,0-6.827-3.053-6.827-6.827c0-3.773,3.057-6.827,6.827-6.827h150.187
		c3.77,0,6.827,3.053,6.827,6.827C256,133.48,252.943,136.533,249.173,136.533z"/>
	<path style="fill:#00E7FF;" d="M160.427,102.4h-61.44c-3.77,0-6.827-3.053-6.827-6.827s3.057-6.827,6.827-6.827h61.44
		c3.77,0,6.827,3.053,6.827,6.827S164.197,102.4,160.427,102.4z"/>
</g>
<g>
	<path style="fill:#602F75;" d="M105.813,197.973H78.507c-3.77,0-6.827-3.053-6.827-6.827s3.057-6.827,6.827-6.827h27.307
		c3.77,0,6.827,3.053,6.827,6.827S109.583,197.973,105.813,197.973z"/>
	<path style="fill:#602F75;" d="M167.253,197.973h-27.307c-3.77,0-6.827-3.053-6.827-6.827s3.057-6.827,6.827-6.827h27.307
		c3.77,0,6.827,3.053,6.827,6.827S171.023,197.973,167.253,197.973z"/>
	<path style="fill:#602F75;" d="M228.693,197.973h-27.307c-3.77,0-6.827-3.053-6.827-6.827s3.057-6.827,6.827-6.827h27.307
		c3.77,0,6.827,3.053,6.827,6.827S232.463,197.973,228.693,197.973z"/>
	<path style="fill:#602F75;" d="M290.133,197.973h-27.307c-3.77,0-6.827-3.053-6.827-6.827s3.057-6.827,6.827-6.827h27.307
		c3.77,0,6.827,3.053,6.827,6.827S293.903,197.973,290.133,197.973z"/>
</g>
<path style="fill:#00E7FF;" d="M249.173,102.4h-61.44c-3.77,0-6.827-3.053-6.827-6.827s3.057-6.827,6.827-6.827h61.44
	c3.77,0,6.827,3.053,6.827,6.827S252.943,102.4,249.173,102.4z"/>
<path style="fill:#EA3457;" d="M264.253,308.34c0,7.187-2.697,13.121-8.086,17.794c-5.39,4.68-12.923,7.627-22.596,8.841v18.393
	h-10.226v-17.679c-5.92,0-11.653-0.461-17.203-1.386c-5.547-0.92-10.093-2.207-13.633-3.847v-12.366
	c4.386,1.959,9.446,3.56,15.181,4.799c5.734,1.239,10.953,1.86,15.657,1.86v-34.881c-10.834-3.434-18.43-7.427-22.791-11.974
	c-4.361-4.547-6.54-10.414-6.54-17.599c0-6.921,2.679-12.607,8.047-17.046c5.364-4.434,12.457-7.134,21.284-8.079v-14.433h10.226
	v14.273c9.726,0.266,19.106,2.22,28.146,5.868l-4.123,10.387c-7.876-3.12-15.884-4.973-24.023-5.553v34.406
	c8.3,2.647,14.51,5.221,18.633,7.733c4.12,2.507,7.159,5.386,9.117,8.639C263.274,299.733,264.253,303.686,264.253,308.34z
	 M207.41,260.134c0,4.019,1.19,7.247,3.567,9.673c2.381,2.434,6.501,4.733,12.367,6.9v-30.681c-5.229,0.847-9.194,2.493-11.89,4.953
	C208.756,253.438,207.41,256.486,207.41,260.134z M250.776,309.367c0-3.806-1.179-6.88-3.529-9.233
	c-2.354-2.353-6.91-4.693-13.677-7.02v30.839C245.04,322.367,250.776,317.507,250.776,309.367z"/>
<g>
</g>
<g>
</g>
<g>
</g>
<g>
</g>
<g>
</g>
<g>
</g>
<g>
</g>
<g>
</g>
<g>
</g>
<g>
</g>
<g>
</g>
<g>
</g>
<g>
</g>
<g>
</g>
<g>
</g>
</svg>
