<svg id="Layer_5" enable-background="new 0 0 64 64" height="512" viewBox="0 0 64 64" width="512" xmlns="http://www.w3.org/2000/svg"><path d="m43 18v-10h-23.07-.01c.06.32.08.66.08 1 0 3.87-3.13 7-7 7l2 46h38v-28-16z" fill="#e6e9ed"/><path d="m19 46h21v12h-21z" fill="#ff826e"/><path d="m62 52.58v.42c0 2.48-1.01 4.74-2.64 6.36-1.62 1.63-3.88 2.64-6.36 2.64-4.97 0-9-4.03-9-9v-.42c0-1.69.47-3.34 1.37-4.77l3.63-5.81h8l3.63 5.81c.9 1.43 1.37 3.08 1.37 4.77z" fill="#cf9e76"/><path d="m61 34-4 8h-8l-4-8h2c1.5 0 1.5 2 3 2s1.5-2 2.99-2h.01c1.5.01 1.5 2 3 2s1.5-2 3-2z" fill="#d3a06c"/><path d="m53 18h-10v-10z" fill="#b4dd7f"/><path d="m40 32v10h-12v-12h12z" fill="#b4dd7f"/><path d="m25 12h14v6h-14z" fill="#ff826e"/><path d="m19 37h-4-8v3h-2c-1.66 0-3-1.34-3-3v-10c0-3.04 1.23-5.79 3.22-7.78.93-.93 2.02-1.69 3.24-2.24.41 2.86 1.34 5.62 2.74 8.15.32.6.67 1.18 1.05 1.75l.75 1.12.79-1.18c.36-.54.69-1.09 1.01-1.66v-.01c1.41-2.53 2.35-5.29 2.77-8.16 3.8 1.74 6.43 5.56 6.43 10.01v10c0 1.66-1.34 3-3 3h-2z" fill="#b27946"/><path d="m19.92 8c.06.32.08.66.08 1 0 3.87-3.13 7-7 7s-7-3.13-7-7 3.13-7 7-7c3.53 0 6.44 2.6 6.92 6z" fill="#f0d0b4"/><path d="m19 58v1c0 1.66-1.34 3-3 3-.83 0-1.58-.34-2.12-.88s-.88-1.29-.88-2.12v-18-.76c0-.79.32-1.56.88-2.12l1.12-1.12h4v3 6z" fill="#838f9b"/><path d="m17.57 16.99c-.42 2.87-1.36 5.63-2.77 8.16l-.65-9.09c1.21.12 2.36.45 3.42.93z" fill="#ffeaa7"/><path d="m15 37-1.12 1.12c-.56.56-.88 1.33-.88 2.12v.76 18c0 .83-.34 1.58-.88 2.12s-1.29.88-2.12.88c-1.66 0-3-1.34-3-3v-19-3z" fill="#838f9b"/><path d="m14.15 16.06.65 9.09v.01c-.32.57-.65 1.12-1.01 1.66l-.79 1.18-.75-1.12c-.38-.57-.73-1.15-1.05-1.75l.65-9.07c.38-.04.76-.06 1.15-.06s.77.02 1.15.06z" fill="#fcd770"/><path d="m11.85 16.06-.65 9.07c-1.4-2.53-2.33-5.29-2.74-8.15 1.05-.48 2.19-.8 3.39-.92z" fill="#ffeaa7"/><path d="m54 49c.551 0 1 .448 1 1h2c0-1.654-1.346-3-3-3v-2h-2v2h-3v3c0 1.654 1.346 3 3 3h2c.551 0 1 .448 1 1v1h-3c-.551 0-1-.448-1-1h-2c0 1.654 1.346 3 3 3v2h2v-2h3v-3c0-1.654-1.346-3-3-3h-2c-.551 0-1-.448-1-1v-1z"/><path d="m61.48 47.281-3.335-5.336 4.473-8.945h-3.618c-1.25 0-1.883.843-2.301 1.399-.379.505-.491.601-.701.601s-.323-.096-.702-.601c-.286-.382-.679-.891-1.296-1.178v-15.635l-10.586-10.586h-22.677c-.892-3.445-4.018-6-7.737-6-4.411 0-8 3.589-8 8 0 2.86 1.514 5.367 3.777 6.782-4.536 1.714-7.777 6.089-7.777 11.218v10c0 2.206 1.794 4 4 4h1v18c0 2.206 1.794 4 4 4 1.2 0 2.266-.542 3-1.382.734.84 1.8 1.382 3 1.382h37c5.514 0 10-4.486 10-10v-.419c0-1.877-.526-3.709-1.52-5.3zm-5.482-10.281c1.25 0 1.882-.842 2.301-1.399.378-.505.49-.601.701-.601h.382l-3 6h-6.764l-3-6h.382c.209 0 .32.096.698.6.418.558 1.049 1.4 2.299 1.4s1.881-.843 2.299-1.4c.378-.504.489-.6.698-.6.211 0 .323.096.702.601.419.557 1.051 1.399 2.302 1.399zm-11.998-26.586 6.586 6.586h-6.586zm-37-1.414c0-3.309 2.691-6 6-6s6 2.691 6 6-2.691 6-6 6-6-2.691-6-6zm2.587 8.613c.383-.14.775-.259 1.178-.352l-.272 3.809c-.391-1.128-.695-2.285-.906-3.457zm3.201-.602c.071-.002.14-.011.212-.011s.141.009.212.011l.565 7.911c-.247.433-.503.86-.778 1.274-.274-.418-.53-.848-.777-1.284zm2.723 4.104-.275-3.854c.412.095.813.218 1.205.362-.218 1.184-.53 2.353-.93 3.492zm-10.511 17.885c-1.103 0-2-.897-2-2v-10c0-3.574 1.891-6.707 4.718-8.475.646 3.168 1.912 6.224 3.703 8.91l1.579 2.368 1.618-2.427c1.777-2.665 3.038-5.695 3.688-8.837 2.814 1.771 4.694 4.897 4.694 8.461v10c0 1.103-.897 2-2 2h-1v-18h-2v15h-10v-15h-2v18zm15 8h19v10h-19zm-10 14c-1.103 0-2-.897-2-2v-21h4.692c-.444.658-.692 1.443-.692 2.242v.758 18c0 1.103-.897 2-2 2zm4-2v-18-.758c0-.526.213-1.042.586-1.414l.828-.828h2.586v21c0 1.103-.897 2-2 2s-2-.897-2-2zm5.444 2c.344-.591.556-1.268.556-2h21v-14h-21v-4h1c2.206 0 4-1.794 4-4v-10c0-5.129-3.241-9.504-7.777-11.218 2.263-1.415 3.777-3.922 3.777-6.782h21v10h10v14.217c-.622.286-1.016.799-1.304 1.183-.378.504-.489.6-.699.6-.209 0-.32-.096-.698-.6-.418-.557-1.049-1.4-2.299-1.4h-3.618l4.473 8.946-3.334 5.335c-.995 1.591-1.521 3.423-1.521 5.3v.419c0 3.273 1.588 6.175 4.026 8zm41.556-8c0 4.411-3.589 8-8 8s-8-3.589-8-8v-.419c0-1.501.42-2.967 1.216-4.239l3.338-5.342h6.892l3.338 5.342c.796 1.272 1.216 2.738 1.216 4.239z"/><path d="m45.707 27.707-1.414-1.414-3.293 3.293v-.586h-14v14h14v-10.586zm-6.707 13.293h-10v-10h10v.586l-6 6-2.293-2.293-1.414 1.414 3.707 3.707 6-6z"/><path d="m40 11h-16v8h16zm-2 6h-12v-4h12z"/><path d="m22 49h15v2h-15z"/><path d="m22 53h11v2h-11z"/><path d="m35 53h2v2h-2z"/><path d="m27 21h23v2h-23z"/><path d="m35 25h2v2h-2z"/><path d="m31 25h2v2h-2z"/><path d="m27 25h2v2h-2z"/></svg>