<?xml version="1.0" encoding="iso-8859-1"?>
<!-- Generator: Adobe Illustrator 19.0.0, SVG Export Plug-In . SVG Version: 6.00 Build 0)  -->
<svg version="1.1" id="Capa_1" xmlns="http://www.w3.org/2000/svg" xmlns:xlink="http://www.w3.org/1999/xlink" x="0px" y="0px"
	 viewBox="0 0 512 512" style="enable-background:new 0 0 512 512;" xml:space="preserve">
<path style="fill:#FF73A0;" d="M512,256c0,78.041-34.932,147.914-90,194.87V66.452V61.13C477.068,108.086,512,177.959,512,256z
	 M0,256c0,78.041,34.932,147.914,90,194.87V66.452V61.13C34.932,108.086,0,177.959,0,256z"/>
<path style="fill:#9650AA;" d="M432,20v50.108V110v331.892c-9.356,8.861-19.391,17.011-30,24.392V460c0-5.522-4.477-10-10-10H120
	c-5.523,0-10,4.478-10,10v6.283c-10.609-7.381-20.644-15.53-30-24.392V110V70.108V20c0-11.046,8.954-20,20-20h312
	C423.046,0,432,8.954,432,20z"/>
<path style="fill:#64326E;" d="M296,30c0,5.523-4.477,10-10,10h-60c-5.523,0-10-4.477-10-10s4.477-10,10-10h60
	C291.523,20,296,24.477,296,30z M190,20c-5.523,0-10,4.477-10,10s4.477,10,10,10s10-4.477,10-10S195.523,20,190,20z M320,20
	c-5.523,0-10,4.477-10,10s4.477,10,10,10s10-4.477,10-10S325.523,20,320,20z"/>
<path style="fill:#AFEBD2;" d="M402,70v70c0-5.522-4.477-10-10-10H120c-5.523,0-10,4.478-10,10V70c0-5.523,4.477-10,10-10h272
	C397.523,60,402,64.477,402,70z"/>
<path style="fill:#E6FAFF;" d="M402,108v52v38v268.291C360.586,495.098,310.271,512,256,512s-104.586-16.902-146-45.709V198v-38v-52
	c0-5.522,4.477-10,10-10h272C397.523,98,402,102.478,402,108z"/>
<path style="fill:#6CD0F5;" d="M128.759,225.425h69.538c51.23,0,92.759,41.53,92.759,92.759v63.467v29.292v19.467
	c0,10.819-8.771,19.59-19.59,19.59l0,0c-7.183,0-13.79-3.931-17.216-10.244l-15.641-28.813h-109.85
	c-51.23,0-92.759-41.53-92.759-92.759l0,0C36,266.954,77.53,225.425,128.759,225.425z"/>
<path style="fill:#4191BE;" d="M180,283v20c0,2.762-2.239,5-5,5H95c-2.761,0-5-2.238-5-5v-20c0-2.762,2.239-5,5-5h80
	C177.761,278,180,280.238,180,283z M145,328H95c-2.761,0-5,2.238-5,5v20c0,2.762,2.239,5,5,5h50c2.761,0,5-2.238,5-5v-20
	C150,330.238,147.761,328,145,328z"/>
<path style="fill:#FFE13C;" d="M476,212.759L476,212.759c0,51.23-41.53,92.76-92.759,92.76h-109.85l-15.641,28.813
	c-3.427,6.313-10.034,10.244-17.216,10.244l0,0c-10.819,0-19.59-8.771-19.59-19.59v-19.467v-29.292V212.76
	c0-51.23,41.53-92.759,92.759-92.759h69.538C434.47,120,476,161.53,476,212.759z"/>
<path style="fill:#EBB410;" d="M410,175v20c0,2.762-2.239,5-5,5H295c-2.761,0-5-2.238-5-5v-20c0-2.762,2.239-5,5-5h110
	C407.761,170,410,172.238,410,175z M405,220h-85c-2.761,0-5,2.238-5,5v20c0,2.762,2.239,5,5,5h85c2.761,0,5-2.238,5-5v-20
	C410,222.238,407.761,220,405,220z"/>
<g>
</g>
<g>
</g>
<g>
</g>
<g>
</g>
<g>
</g>
<g>
</g>
<g>
</g>
<g>
</g>
<g>
</g>
<g>
</g>
<g>
</g>
<g>
</g>
<g>
</g>
<g>
</g>
<g>
</g>
</svg>
