<svg height="512" viewBox="0 0 64 64" width="512" xmlns="http://www.w3.org/2000/svg" xmlns:xlink="http://www.w3.org/1999/xlink"><linearGradient id="linear-gradient" gradientUnits="userSpaceOnUse" x1="2.35" x2="55.177" y1="-33.826" y2="81.033"><stop offset="0" stop-color="#00c6ff"/><stop offset="1" stop-color="#0072ff"/></linearGradient><linearGradient id="linear-gradient-2" x1="31.375" x2="31.375" xlink:href="#linear-gradient" y1="8.384" y2="146.113"/><linearGradient id="linear-gradient-3" x1="31.375" x2="31.375" xlink:href="#linear-gradient" y1="-34.014" y2="164.595"/><linearGradient id="linear-gradient-4" x1="43.922" x2="43.922" xlink:href="#linear-gradient" y1="-25.827" y2="15.592"/><linearGradient id="linear-gradient-5" x1="36.392" x2="36.392" xlink:href="#linear-gradient" y1="-25.827" y2="15.592"/><linearGradient id="linear-gradient-6" gradientUnits="userSpaceOnUse" x1="31.373" x2="31.373" y1="91.281" y2="115.468"><stop offset="0" stop-color="#fdc830"/><stop offset="1" stop-color="#f37335"/></linearGradient><linearGradient id="linear-gradient-7" x1="31.373" x2="31.373" xlink:href="#linear-gradient-6" y1="1.951" y2="120.104"/><g id="SIM_Card" data-name="SIM Card"><path d="m48.875 0h-14.606a5.574 5.574 0 0 0 -3.977 1.654l-17.892 17.964a5.616 5.616 0 0 0 -1.649 3.994v34.741a5.642 5.642 0 0 0 5.624 5.647h32.5a5.642 5.642 0 0 0 5.625-5.647v-52.706a5.642 5.642 0 0 0 -5.625-5.647z" fill="url(#linear-gradient)"/><path d="m47.625 0h-14.606a5.574 5.574 0 0 0 -3.977 1.654l-17.893 17.964a5.616 5.616 0 0 0 -1.649 3.994v34.741a5.642 5.642 0 0 0 5.625 5.647h32.5a5.642 5.642 0 0 0 5.625-5.647v-52.706a5.642 5.642 0 0 0 -5.625-5.647z" fill="url(#linear-gradient-2)"/><path d="m15.125 64h32.5a5.642 5.642 0 0 0 5.625-5.647v-21.359c-6.3 9.583-18.913 18.287-43.75 19.362v2a5.642 5.642 0 0 0 5.625 5.644z" fill="url(#linear-gradient-3)"/><g fill="#fff"><path d="m27.048 9.961a1 1 0 0 1 -.707-1.707l4.645-4.645a2.86 2.86 0 0 1 2.037-.844h4.624a1 1 0 1 1 0 2h-4.624a.841.841 0 0 0 -.622.257l-4.646 4.646a.993.993 0 0 1 -.707.293z"/><path d="m22.126 13.883a1 1 0 0 1 0-1.414l.6-.6a1 1 0 0 1 1.415 1.414l-.6.6a1 1 0 0 1 -1.415 0z"/><path d="m13.177 35.946a1 1 0 0 1 -1-1v-7.7a1 1 0 0 1 2 0v7.7a1 1 0 0 1 -1 1z"/><path d="m49.568 50.723a1 1 0 0 1 -1-1v-5.665a1 1 0 0 1 2 0v5.665a1 1 0 0 1 -1 1z"/><path d="m49.568 39.429a1 1 0 0 1 -1-1v-1.755a1 1 0 1 1 2 0v1.755a1 1 0 0 1 -1 1z"/></g><path d="m42.039 18.2v-6.278a1.883 1.883 0 0 1 3.765 0v6.278a1.883 1.883 0 0 1 -3.765 0z" fill="url(#linear-gradient-4)"/><path d="m34.51 18.2v-6.278a1.883 1.883 0 0 1 3.765 0v6.278a1.883 1.883 0 0 1 -3.765 0z" fill="url(#linear-gradient-5)"/><rect fill="url(#linear-gradient-6)" height="22.588" rx="4" width="25.098" x="18.824" y="32"/><path d="m41.412 30.118h-20.079a4.4 4.4 0 0 0 -4.392 4.392v17.568a4.4 4.4 0 0 0 4.392 4.393h20.079a4.4 4.4 0 0 0 4.388-4.393v-17.568a4.4 4.4 0 0 0 -4.388-4.392zm.627 4.392v6.9h-8.784v-7.53h8.157a.628.628 0 0 1 .627.63zm-20.706-.628h8.157v7.53h-8.784v-6.9a.628.628 0 0 1 .627-.63zm-.627 18.2v-6.9h8.784v7.53h-8.157a.628.628 0 0 1 -.627-.634zm20.706.628h-8.157v-7.53h8.784v6.9a.628.628 0 0 1 -.627.626z" fill="url(#linear-gradient-7)"/></g></svg>