<svg height="512pt" viewBox="-31 0 512 512" width="512pt" xmlns="http://www.w3.org/2000/svg"><path d="m269.9375 65h-55.9375v-13.539062l-12.402344-6.363282-81.597656-1.496094-10.199219-.300781-49.800781 21.5v65.296875l13.199219 26.601563 46.800781-.300781 44-.3125v-26.085938h90.898438l45.101562-.300781v-64.5zm0 0" fill="#ffc72d"/><path d="m269.9375 65h-55.9375v-13.539062l-12.402344-6.363282-81.597656-1.496094v112.796876l44-.3125v-26.085938h90.898438l45.101562-.300781v-64.5zm0 0" fill="#f59d00"/><path d="m240 193.898438v64.203124l-57.300781 33.597657h-129.296875l-53.402344-33.597657v-64.203124l25.199219-15.597657h153.898437zm0 0" fill="#ffc72d"/><path d="m240 322.300781v64.5l-35.699219 24h-164.101562l-40.199219-24v-64.5l16.800781-16.800781h179.101563zm0 0" fill="#ffc72d"/><path d="m179.097656 178.300781 60.902344 15.597657v64.203124l-57.300781 33.597657h-62.699219v-113.398438zm0 0" fill="#f59d00"/><path d="m195.902344 305.5 44.097656 16.800781v64.5l-35.699219 24h-84.300781v-105.300781zm0 0" fill="#f59d00"/><path d="m0 0v64.800781h240v-64.800781zm0 0" fill="#ffe49c"/><path d="m0 130.097656v63.800782h240v-63.800782zm0 0" fill="#ffe49c"/><path d="m0 258.101562v64.199219h240v-64.199219zm0 0" fill="#ffe49c"/><path d="m0 386.800781v64.199219h240v-64.199219zm0 0" fill="#ffe49c"/><g fill="#ffc72d"><path d="m120 0h120v64.800781h-120zm0 0"/><path d="m120 130.097656h120v63.800782h-120zm0 0"/><path d="m120 258.101562h120v64.199219h-120zm0 0"/><path d="m120 386.800781h120v64.199219h-120zm0 0"/></g><path d="m315 241c-74.398438 0-135 60.597656-135 135 0 74.398438 60.601562 136 135 136s135-61.601562 135-136c0-74.402344-60.601562-135-135-135zm0 0" fill="#ffe49c"/><path d="m450 376c0 74.398438-60.601562 136-135 136v-271c74.398438 0 135 60.597656 135 135zm0 0" fill="#ffd400"/><path d="m360 406c0 19.5-12.597656 36-30 42.300781v31.5h-30v-31.5c-17.402344-6.300781-30-22.800781-30-42.300781h30c0 8.398438 6.597656 15 15 15s15-6.601562 15-15c0-8.402344-6.597656-15-15-15-24.902344 0-45-20.101562-45-45 0-19.5 12.597656-36 30-42.300781v-32.101563h30v32.101563c17.402344 6.300781 30 22.800781 30 42.300781h-30c0-8.402344-6.597656-15-15-15s-15 6.597656-15 15c0 8.398438 6.597656 15 15 15 24.902344 0 45 20.097656 45 45zm0 0" fill="#ffc72d"/><path d="m360 406c0 19.5-12.597656 36-30 42.300781v31.5h-15v-58.800781c8.402344 0 15-6.601562 15-15 0-8.402344-6.597656-15-15-15v-30c24.902344 0 45 20.097656 45 45zm0 0" fill="#f59d00"/><path d="m315 331v-59.402344h15v32.101563c17.402344 6.300781 30 22.800781 30 42.300781h-30c0-8.402344-6.597656-15-15-15zm0 0" fill="#f59d00"/></svg>